<svg width="18" height="18" viewBox="0 0 18 18" fill="none" xmlns="http://www.w3.org/2000/svg">
<g id="fi-br-arrow-right" clip-path="url(#clip0_5_20)">
<path id="Vector" d="M14.3414 13.7955L17.2807 10.8562C17.7579 10.3561 18.0242 9.69131 18.0242 8.99998C18.0242 8.30864 17.7579 7.64387 17.2807 7.14373L14.3414 4.20448C14.1305 3.99343 13.8443 3.87483 13.5459 3.87476C13.2475 3.87469 12.9613 3.99315 12.7503 4.2041C12.5392 4.41505 12.4206 4.70119 12.4206 4.99959C12.4205 5.29798 12.539 5.58418 12.7499 5.79523L14.8349 7.88098L1.1474 7.89823C0.849031 7.89823 0.562883 8.01675 0.351905 8.22773C0.140926 8.43871 0.0223999 8.72486 0.0223999 9.02323C0.0223999 9.3216 0.140926 9.60775 0.351905 9.81872C0.562883 10.0297 0.849031 10.1482 1.1474 10.1482L14.8207 10.131L12.7499 12.2047C12.545 12.4169 12.4316 12.7011 12.4341 12.9961C12.4367 13.291 12.555 13.5732 12.7636 13.7818C12.9722 13.9904 13.2544 14.1087 13.5493 14.1112C13.8443 14.1138 14.1285 14.0004 14.3407 13.7955H14.3414Z" fill="#16147D"/>
</g>
<defs>
<clipPath id="clip0_5_20">
<rect width="18" height="18" fill="white"/>
</clipPath>
</defs>
</svg>
