<svg width="24" height="24" viewBox="0 0 24 24" fill="none" xmlns="http://www.w3.org/2000/svg">
<g clip-path="url(#clip0_14_393)">
<path d="M4.94296 5.60588L1.02396 9.52488C0.387588 10.1917 0.0325317 11.0781 0.0325317 11.9999C0.0325317 12.9217 0.387588 13.808 1.02396 14.4749L4.94296 18.3939C5.08133 18.5372 5.24685 18.6514 5.42986 18.73C5.61286 18.8087 5.80969 18.85 6.00886 18.8518C6.20803 18.8535 6.40555 18.8155 6.58989 18.7401C6.77424 18.6647 6.94172 18.5533 7.08256 18.4125C7.2234 18.2716 7.33477 18.1042 7.4102 17.9198C7.48562 17.7355 7.52357 17.538 7.52184 17.3388C7.52011 17.1396 7.47873 16.9428 7.40012 16.7598C7.3215 16.5768 7.20723 16.4113 7.06396 16.2729L4.28496 13.4919L22.535 13.4689C22.9328 13.4689 23.3143 13.3109 23.5956 13.0295C23.8769 12.7482 24.035 12.3667 24.035 11.9689C24.035 11.5711 23.8769 11.1895 23.5956 10.9082C23.3143 10.6269 22.9328 10.4689 22.535 10.4689L4.29996 10.4919L7.06396 7.72688C7.3372 7.44398 7.48839 7.06508 7.48497 6.67178C7.48156 6.27849 7.3238 5.90227 7.04569 5.62415C6.76758 5.34604 6.39136 5.18829 5.99806 5.18487C5.60477 5.18145 5.22587 5.33265 4.94296 5.60588Z" fill="#374957"/>
</g>
<defs>
<clipPath id="clip0_14_393">
<rect width="24" height="24" fill="white"/>
</clipPath>
</defs>
</svg>
